<mxfile host="app.diagrams.net" modified="2023-05-02T13:33:11.861Z" agent="Mozilla/5.0 (Windows NT 10.0; Win64; x64) AppleWebKit/537.36 (KHTML, like Gecko) Chrome/112.0.0.0 Safari/537.36" etag="2PBdOD0HVcaKCJmjHig7" version="21.2.3" type="onedrive">
  <diagram name="Page-1" id="2YBvvXClWsGukQMizWep">
    <mxGraphModel grid="1" page="1" gridSize="10" guides="1" tooltips="1" connect="1" arrows="1" fold="1" pageScale="1" pageWidth="850" pageHeight="1100" math="0" shadow="0">
      <root>
        <mxCell id="0" />
        <mxCell id="1" parent="0" />
        <mxCell id="vbn1vjWYSr6YsiNQEqlZ-1" value="cd : sendDelivery" style="shape=umlFrame;whiteSpace=wrap;html=1;pointerEvents=0;width=150;height=30;" vertex="1" parent="1">
          <mxGeometry x="10" y="11" width="630" height="219" as="geometry" />
        </mxCell>
        <mxCell id="vbn1vjWYSr6YsiNQEqlZ-34" style="edgeStyle=none;rounded=0;orthogonalLoop=1;jettySize=auto;html=1;endArrow=none;endFill=0;entryX=0;entryY=0;entryDx=0;entryDy=0;" edge="1" parent="1" target="vbn1vjWYSr6YsiNQEqlZ-33">
          <mxGeometry relative="1" as="geometry">
            <mxPoint x="10" y="80" as="sourcePoint" />
          </mxGeometry>
        </mxCell>
        <mxCell id="vbn1vjWYSr6YsiNQEqlZ-33" value="OrderManagment" style="html=1;whiteSpace=wrap;" vertex="1" parent="1">
          <mxGeometry x="190" y="80" width="100" height="40" as="geometry" />
        </mxCell>
        <mxCell id="vbn1vjWYSr6YsiNQEqlZ-57" value="sendDelivery(supplier, order)" style="html=1;verticalAlign=bottom;endArrow=block;edgeStyle=elbowEdgeStyle;elbow=vertical;curved=0;rounded=0;" edge="1" parent="1">
          <mxGeometry x="0.2571" y="-22" width="80" relative="1" as="geometry">
            <mxPoint x="84" y="58.5" as="sourcePoint" />
            <mxPoint x="121" y="58" as="targetPoint" />
            <mxPoint as="offset" />
            <Array as="points">
              <mxPoint x="105" y="58" />
            </Array>
          </mxGeometry>
        </mxCell>
        <mxCell id="eug0yIInreZ6nuwDFGsd-4" value="&lt;span style=&quot;font-size: 10px;&quot;&gt;1. needDelivery()&lt;br&gt;&lt;/span&gt;" style="html=1;verticalAlign=bottom;endArrow=block;edgeStyle=elbowEdgeStyle;elbow=vertical;curved=0;rounded=0;" edge="1" parent="1">
          <mxGeometry x="-0.28" y="-27" width="80" relative="1" as="geometry">
            <mxPoint x="360" y="70" as="sourcePoint" />
            <mxPoint x="390" y="70" as="targetPoint" />
            <mxPoint as="offset" />
            <Array as="points">
              <mxPoint x="357" y="70" />
            </Array>
          </mxGeometry>
        </mxCell>
        <mxCell id="W19vyAFUkHcT3V9oL0bM-1" value="supplier : Supplier" style="html=1;whiteSpace=wrap;" vertex="1" parent="1">
          <mxGeometry x="460" y="80" width="130" height="40" as="geometry" />
        </mxCell>
        <mxCell id="fHD3HZ6wCKZXL_5JlZON-2" value="ShipmentManagement" style="html=1;whiteSpace=wrap;" vertex="1" parent="1">
          <mxGeometry x="125" y="170" width="130" height="40" as="geometry" />
        </mxCell>
        <mxCell id="fHD3HZ6wCKZXL_5JlZON-3" value="1.1. [supplier.needDelivery()]&lt;br&gt;&lt;span style=&quot;font-size: 10px;&quot;&gt;: createDeliveryRequest(supplier, order) : ShipmentManagement&lt;br&gt;&lt;/span&gt;" style="html=1;verticalAlign=bottom;endArrow=block;edgeStyle=elbowEdgeStyle;elbow=vertical;curved=0;rounded=0;" edge="1" parent="1">
          <mxGeometry x="1" y="150" width="80" relative="1" as="geometry">
            <mxPoint x="195" y="132" as="sourcePoint" />
            <mxPoint x="195" y="152" as="targetPoint" />
            <mxPoint y="10" as="offset" />
            <Array as="points">
              <mxPoint x="173" y="135" />
            </Array>
          </mxGeometry>
        </mxCell>
        <mxCell id="obRpyaiLCISgEbDacJ6L-1" value="" style="endArrow=open;endFill=1;endSize=12;html=1;rounded=0;exitX=1;exitY=0.5;exitDx=0;exitDy=0;entryX=0;entryY=0.5;entryDx=0;entryDy=0;" edge="1" parent="1" source="vbn1vjWYSr6YsiNQEqlZ-33" target="W19vyAFUkHcT3V9oL0bM-1">
          <mxGeometry width="160" relative="1" as="geometry">
            <mxPoint x="440" y="150" as="sourcePoint" />
            <mxPoint x="600" y="150" as="targetPoint" />
          </mxGeometry>
        </mxCell>
        <mxCell id="obRpyaiLCISgEbDacJ6L-3" value="" style="endArrow=none;html=1;rounded=0;entryX=0;entryY=1;entryDx=0;entryDy=0;exitX=0.5;exitY=0;exitDx=0;exitDy=0;" edge="1" parent="1" source="fHD3HZ6wCKZXL_5JlZON-2" target="vbn1vjWYSr6YsiNQEqlZ-33">
          <mxGeometry width="50" height="50" relative="1" as="geometry">
            <mxPoint x="310" y="180" as="sourcePoint" />
            <mxPoint x="360" y="130" as="targetPoint" />
          </mxGeometry>
        </mxCell>
      </root>
    </mxGraphModel>
  </diagram>
</mxfile>
